<?xml version="1.0" encoding="UTF-8"?>
<svg width="24px" height="24px" viewBox="0 0 24 24" version="1.1">
    <title>ic-Dashboard</title>
    <g id="symbol" stroke="none" stroke-width="1" fill="none" fill-rule="evenodd">
        <g id="Ui-Bar-/-Active-/-Home" transform="translate(-29.000000, -10.000000)" fill="#0D0E56" stroke="#0D0E56" stroke-width="0.5">
            <g id="Text-1" transform="translate(0.000000, 11.000000)">
                <g id="ic-Dashboard" transform="translate(30.000000, 0.000000)">
                    <path d="M22.452381,21.127907 L22.452381,7.22093023 C22.452381,6.68604651 22.3592857,6.41860465 21.9047619,6.41860465 C20.3111905,6.41860465 19.6759524,7.56860465 19.1666667,8.49395349 C18.5807143,9.56372093 18.1919048,10.1627907 16.9761905,10.1627907 C16.0671429,10.1627907 15.7878571,9.62790698 15.2730952,8.18372093 C14.7583333,6.73953488 14.0738095,4.81395349 11.5,4.81395349 L11.3247619,4.81395349 L11.2261905,4.81395349 C11.160721,4.80611799 11.0945171,4.80611799 11.0290476,4.81395349 C8.17047619,5.07604651 7.48595238,7.72906977 6.88357143,10.0932558 C6.65005248,11.1800621 6.29944974,12.2396824 5.83761905,13.2544186 C5.70262442,13.5150982 5.53921776,13.7607847 5.3502381,13.9872093 C5.19209471,14.0721653 5.0669998,14.2056297 4.99428571,14.3669767 C4.07036578,15.1579628 2.87041046,15.5716273 1.64285714,15.5223256 L1.64285714,0.802325581 C1.64285714,0.359213398 1.27509104,1.77635684e-15 0.821428571,1.77635684e-15 C0.367766098,1.77635684e-15 0,0.359213398 0,0.802325581 L0,21.3953488 C0,21.838461 0.367766098,22.1976744 0.821428571,22.1976744 L21.9047619,22.1976744 C22.3592857,22.1976744 22.6166667,21.2723256 22.452381,21.127907 Z M4.92857143,20.5930233 L1.64285714,20.5930233 L1.64285714,17.1537209 L1.74690476,17.1537209 C2.85516411,17.1536748 3.94689442,16.891219 4.92857143,16.3888372 L4.92857143,20.5930233 Z M10.4047619,20.5930233 L6.57142857,20.5930233 L6.57142857,15.0890698 C6.85748603,14.761341 7.10372907,14.4023612 7.3052381,14.0193023 C7.82445763,12.900017 8.21740653,11.7288567 8.47714286,10.5265116 C8.99190476,8.51534884 9.38619048,7.18348837 10.4047619,6.67534884 L10.4047619,20.5930233 Z M15.8809524,20.5930233 L12.047619,20.5930233 L12.047619,6.4827907 C12.9511905,6.69674419 13.2797619,7.47232558 13.7233333,8.70790698 C14.0957143,9.7455814 14.577619,11.0988372 15.8809524,11.5802326 L15.8809524,20.5930233 Z M20.8095238,20.5930233 L17.5238095,20.5930233 L17.5238095,11.7353488 C19.3747619,11.5213953 20.0866667,10.2269767 20.6178571,9.25348837 L20.8095238,8.91651163 L20.8095238,20.5930233 Z" id="Shape"></path>
                </g>
            </g>
        </g>
    </g>
</svg>