<?xml version="1.0" encoding="UTF-8"?>
<svg width="36px" height="36px" viewBox="0 0 36 36" version="1.1" xmlns="http://www.w3.org/2000/svg" xmlns:xlink="http://www.w3.org/1999/xlink">
    <title>ic/light/36/log_out</title>
    <g id="ic/light/36/log_out" stroke="none" stroke-width="1" fill="none" fill-rule="evenodd">
        <g id="Oval-Copy-3" opacity="0.34828404" stroke="#B2BAD4" stroke-width="2.5">
            <circle cx="18" cy="18" r="16.75"></circle>
        </g>
        <g id="ic/light/24/card/inactive" transform="translate(6.000000, 6.000000)">
            <polygon id="Path" points="0 0 24 0 24 24 0 24"></polygon>
            <path d="M20,4 L4,4 C2.89,4 2.01,4.89 2.01,6 L2,18 C2,19.11 2.89,20 4,20 L20,20 C21.11,20 22,19.11 22,18 L22,6 C22,4.89 21.11,4 20,4 Z M20,18 L4,18 L4,12 L20,12 L20,18 Z M20,8 L4,8 L4,6 L20,6 L20,8 Z" id="Shape" fill="#AFB7D1" fill-rule="nonzero"></path>
        </g>
    </g>
</svg>