<?xml version="1.0" encoding="UTF-8"?>
<svg width="27px" height="21px" viewBox="0 0 27 21" version="1.1" xmlns="http://www.w3.org/2000/svg">
    <title>ç¼–ç»„</title>
    <g id="è®°è´¦-ðŸ’°" stroke="none" stroke-width="1" fill="none" fill-rule="evenodd">
        <g id="ç”»æ¿" transform="translate(-197.000000, -743.000000)" stroke="#0D0E56">
            <g id="ç¼–ç»„" transform="translate(199.000000, 745.000000)">
                <path d="M7.81665383,0 L19,0 L19,0 C21.209139,0 23,1.790861 23,4 L23,13 C23,15.209139 21.209139,17 19,17 L7.81665383,17 C6.63210391,17 5.47405775,16.6493718 4.48845265,15.9923018 L1.33589941,13.8905996 C0.501303406,13.3342023 1.45646572e-15,12.3975083 0,11.3944487 L0,5.60555128 C-1.22839368e-16,4.60249171 0.501303406,3.66579773 1.33589941,3.10940039 L4.48845265,1.00769823 C5.47405775,0.350628165 6.63210391,1.99395513e-15 7.81665383,0 Z" id="çŸ©å½¢" stroke-width="3" stroke-linejoin="round"></path>
                <circle id="æ¤­åœ†å½¢" stroke-width="2" cx="5.5" cy="8.5" r="1.5"></circle>
            </g>
        </g>
    </g>
</svg>