<?xml version="1.0" encoding="UTF-8"?>
<svg width="23px" height="23px" viewBox="0 0 23 23" version="1.1" xmlns="http://www.w3.org/2000/svg">
    <title>Alert</title>
    <g id="symbol" stroke="none" stroke-width="1" fill="none" fill-rule="evenodd">
        <g id="Ui-Bar-/-Active-/-Tips" transform="translate(-30.000000, -11.000000)" fill="#0D0E56" stroke="#0D0E56" stroke-width="0.5">
            <g id="Text-1" transform="translate(0.000000, 11.000000)">
                <g id="Alert" transform="translate(30.000000, 1.000000)">
                    <path d="M11.1125581,0.204651163 C5.17870804,0.204651163 0.368372093,5.01498711 0.368372093,10.9488372 C0.368372093,16.8826873 5.17870804,21.6930233 11.1125581,21.6930233 C17.0464082,21.6930233 21.8567442,16.8826873 21.8567442,10.9488372 C21.8567442,5.01498711 17.0464082,0.204651163 11.1125581,0.204651163 L11.1125581,0.204651163 Z M11.1125581,20.1581395 C6.02640091,20.1581395 1.90325581,16.0349944 1.90325581,10.9488372 C1.90325581,5.86267998 6.02640091,1.73953488 11.1125581,1.73953488 C16.1987154,1.73953488 20.3218605,5.86267998 20.3218605,10.9488372 C20.3218605,16.0349944 16.1987154,20.1581395 11.1125581,20.1581395 Z" id="Shape"></path>
                    <path d="M11.3683721,4.55348837 C10.9445257,4.55348837 10.6009302,4.8970838 10.6009302,5.32093023 L10.6009302,12.4837209 C10.6009302,12.9075674 10.9445257,13.2511628 11.3683721,13.2511628 C11.7922185,13.2511628 12.135814,12.9075674 12.135814,12.4837209 L12.135814,5.32093023 C12.135814,4.8970838 11.7922185,4.55348837 11.3683721,4.55348837 Z" id="Shape"></path>
                    <circle id="Oval" cx="11.3683721" cy="15.2976744" r="1"></circle>
                </g>
            </g>
        </g>
    </g>
</svg>